<?xml version="1.0" encoding="utf-8"?>
<!-- Generator: Adobe Illustrator 25.2.3, SVG Export Plug-In . SVG Version: 6.00 Build 0)  -->
<svg version="1.1" id="Layer_1" xmlns="http://www.w3.org/2000/svg" xmlns:xlink="http://www.w3.org/1999/xlink" x="0px" y="0px"
	 viewBox="0 0 50 50" style="enable-background:new 0 0 50 50;" xml:space="preserve">
<style type="text/css">
	.st0{fill:#B1B5C5;}
</style>
<path class="st0" d="M25,0C11.19,0,0,11.19,0,25s11.19,25,25,25s25-11.19,25-25S38.81,0,25,0z M31.47,35l-8.23-8.23
	c-0.47-0.47-0.73-1.1-0.73-1.77V12.5c0-1.38,1.12-2.5,2.5-2.5l0,0c1.38,0,2.5,1.12,2.5,2.5v11.47l7.5,7.5
	c0.97,0.98,0.97,2.56,0,3.53l0,0C34.02,35.97,32.44,35.97,31.47,35z"/>
</svg>
