<?xml version="1.0" encoding="utf-8"?>
<!-- Generator: Adobe Illustrator 25.2.3, SVG Export Plug-In . SVG Version: 6.00 Build 0)  -->
<svg version="1.1" id="Layer_1" xmlns="http://www.w3.org/2000/svg" xmlns:xlink="http://www.w3.org/1999/xlink" x="0px" y="0px"
	 viewBox="0 0 50 50" style="enable-background:new 0 0 50 50;" xml:space="preserve">
<style type="text/css">
	.st0{fill:#B1B5C5;}
</style>
<path class="st0" d="M4.28,24.42c0-3.81,0-7.62,0-11.43c0-2.62,1.19-4.29,3.33-5.72C11.43,4.89,15,2.51,18.57,0.13
	c0.71-0.48,2.38,0.48,2.38,1.43c0,1.19,0,2.14,0,3.33s-1.67,1.91-2.38,1.19c-0.95-0.71-1.67-0.71-2.62,0
	c-2.14,1.67-4.52,2.86-6.91,4.29c-0.95,0.48-1.43,1.91-1.19,3.1c0.24,0.71,1.19,1.19,2.14,0.95c1.43-0.24,2.86-0.95,4.05-1.67
	c3.33-2.14,6.67-4.29,10-6.67c1.19-0.71,2.62-1.67,3.81-2.38c0.95-0.48,1.67-0.48,2.38,0.48c0.48,0.71,0.48,1.91-0.24,2.38
	c-1.67,1.19-3.1,2.14-4.76,3.33c-1.91,1.43-3.81,2.62-5.72,4.05c-1.67,1.43-2.14,3.33-2.14,5.48c0,6.19,0,12.38,0,18.34
	c0,2.14-0.71,3.1-2.86,3.33c-2.62,0.24-5.24,0.24-7.62-1.19c-1.67-0.95-2.62-2.14-2.62-4.05C4.52,32.52,4.28,28.47,4.28,24.42z"/>
<path class="st0" d="M45.48,12.27c0-0.95-0.24-1.43-0.95-1.67c-0.48-0.24-1.19,0-1.67,0.24c-0.71,0.48-1.67,1.19-2.38,1.91
	c-2.38,1.67-5,3.57-7.38,5.48c-2.14,1.67-4.29,3.1-6.91,3.81c-1.91,0.48-3.33-0.48-3.1-2.14c0-0.48,0.48-1.19,0.95-1.43
	c2.62-2.14,5.24-4.05,8.1-5.95c0.24,0,0.71,0,0.95,0.24c0.71,0.48,1.67,0.48,2.38,0.24s0.71-0.95,0.71-1.67s0-1.67,0-2.38
	c0-1.43-1.43-2.14-2.62-1.43c-2.38,1.43-4.76,2.86-6.91,4.52c-1.67,1.43-3.57,2.62-5.24,4.05c-1.19,0.95-1.91,2.38-1.91,4.05
	c0,3.81,0,7.62,0,11.67c0,3.81,0.24,7.62-0.24,11.91c0,2.38,1.19,4.05,3.33,5c0.71,0.48,1.67,0.71,2.38,0.95
	c1.43,0.24,2.86,0.48,4.29,0.24c1.43-0.48,2.62-1.19,3.81-2.14c3.81-3.1,7.86-5.95,11.67-9.05c0.24-0.24,0.71-0.71,0.71-0.95
	c0.24-0.95,0.24-1.91,0.24-2.86c0-2.62,0-5,0-7.62C45.72,22.28,45.48,17.27,45.48,12.27z M42.26,25.31c0,0.06-0.03,0.13-0.08,0.16
	l-8.95,6.9c-0.14,0.11-0.33,0.01-0.33-0.16v-3.84c0-0.06,0.03-0.12,0.08-0.16l0.71-0.58c0.05-0.04,0.07-0.08,0.13-0.11
	c0.07-0.06,0.15-0.11,0.22-0.17l7.89-6.4c0.14-0.11,0.34-0.01,0.34,0.16V25.31z"/>
</svg>
