<?xml version="1.0" encoding="utf-8"?>
<!-- Generator: Adobe Illustrator 25.2.3, SVG Export Plug-In . SVG Version: 6.00 Build 0)  -->
<svg version="1.1" id="Layer_1" xmlns="http://www.w3.org/2000/svg" xmlns:xlink="http://www.w3.org/1999/xlink" x="0px" y="0px"
	 viewBox="0 0 612 792" style="enable-background:new 0 0 612 792;" xml:space="preserve">
<path d="M92.1,83.39h-5.4c-0.63,0-1.14-0.51-1.14-1.14l0,0c0-0.63,0.51-1.14,1.14-1.14h5.4c0.63,0,1.14,0.51,1.14,1.14l0,0
	C93.25,82.88,92.73,83.39,92.1,83.39z"/>
<path d="M92.75,91.02h-6.68c-0.65,0-1.17-0.52-1.17-1.17l0,0c0-0.65,0.52-1.17,1.17-1.17h6.68c0.65,0,1.17,0.52,1.17,1.17l0,0
	C93.92,90.5,93.39,91.02,92.75,91.02z"/>
<path d="M92.75,87.32h-6.68c-0.65,0-1.17-0.52-1.17-1.17l0,0c0-0.65,0.52-1.17,1.17-1.17h6.68c0.65,0,1.17,0.52,1.17,1.17l0,0
	C93.92,86.8,93.39,87.32,92.75,87.32z"/>
</svg>
