<?xml version="1.0" encoding="utf-8"?>
<!-- Generator: Adobe Illustrator 25.2.3, SVG Export Plug-In . SVG Version: 6.00 Build 0)  -->
<svg version="1.1" id="Layer_1" xmlns="http://www.w3.org/2000/svg" xmlns:xlink="http://www.w3.org/1999/xlink" x="0px" y="0px"
	 viewBox="0 0 50 50" style="enable-background:new 0 0 50 50;" xml:space="preserve">
<style type="text/css">
	.st0{fill:#B1B5C5;}
</style>
<path class="st0" d="M34.37,11.5H17.15c-2.01,0-3.64-2.57-3.64-5.75l0,0c0-3.18,1.63-5.75,3.64-5.75h17.22
	c2.01,0,3.64,2.57,3.64,5.75l0,0C38.04,8.93,36.38,11.5,34.37,11.5z"/>
<path class="st0" d="M36.41,50h-21.3c-2.07,0-3.73-2.62-3.73-5.9l0,0c0-3.28,1.66-5.9,3.73-5.9h21.3c2.07,0,3.73,2.62,3.73,5.9l0,0
	C40.14,47.38,38.45,50,36.41,50z"/>
<path class="st0" d="M36.41,31.33h-21.3c-2.07,0-3.73-2.62-3.73-5.9l0,0c0-3.28,1.66-5.9,3.73-5.9h21.3c2.07,0,3.73,2.62,3.73,5.9
	l0,0C40.14,28.71,38.45,31.33,36.41,31.33z"/>
</svg>
