<?xml version="1.0" encoding="utf-8"?>
<!-- Generator: Adobe Illustrator 25.2.3, SVG Export Plug-In . SVG Version: 6.00 Build 0)  -->
<svg version="1.1" id="Layer_1" xmlns="http://www.w3.org/2000/svg" xmlns:xlink="http://www.w3.org/1999/xlink" x="0px" y="0px"
	 viewBox="0 0 612 792" style="enable-background:new 0 0 612 792;" xml:space="preserve">
<style type="text/css">
	.st0{fill:#FFFFFF;}
</style>
<path d="M95.02,86.97c0-1.65,0.01-3.3,0-4.94c-0.01-0.72,0.27-1.3,0.81-1.73c0.73-0.58,1.48-1.14,2.25-1.67
	c0.95-0.66,1.91-1.31,2.89-1.94c0.54-0.35,1.08-0.01,1.09,0.63c0,0.34,0,0.69,0.01,1.03c0.01,0.3-0.02,0.61-0.32,0.73
	c-0.32,0.11-0.66,0.14-0.96-0.14c-0.08-0.08-0.3-0.12-0.38-0.07c-1.16,0.8-2.3,1.62-3.44,2.46c-0.19,0.14-0.37,0.38-0.41,0.6
	c-0.12,0.68,0.53,1.11,1.26,0.93c1.11-0.28,2.02-0.91,2.91-1.6c1.03-0.8,2.08-1.56,3.12-2.35c0.35-0.26,0.67-0.56,1.04-0.78
	c0.19-0.11,0.49-0.17,0.7-0.11c0.29,0.08,0.45,0.32,0.45,0.68c0.03,2.1,0.08,4.2,0.12,6.31c0.02,1.06,0.04,2.12-0.01,3.18
	c-0.02,0.44-0.04,0.78-0.11,1.17c-0.03,0.13-0.18,0.29-0.29,0.38c-1.64,1.26-3.28,2.52-4.94,3.75c-0.48,0.36-1.02,0.74-1.58,0.87
	c-0.57,0.13-1.22,0-1.83-0.09c-0.35-0.05-0.7-0.21-1.02-0.37c-0.87-0.43-1.39-1.06-1.36-2.11C95.05,90.18,95.01,88.58,95.02,86.97
	C95.01,86.97,95.01,86.97,95.02,86.97z M104.47,82.46c-0.21,0.15-0.36,0.27-0.49,0.38c-0.37,0.31-0.76,0.6-1.14,0.89
	c-0.62,0.48-1.28,0.92-1.9,1.4c-0.56,0.44-0.18,1.03-0.29,1.67c0.82-0.6,1.52-1.13,2.23-1.65c0.46-0.34,0.92-0.68,1.37-1.04
	c0.11-0.09,0.22-0.24,0.22-0.37C104.47,83.36,104.47,82.97,104.47,82.46z"/>
<path d="M88.64,83.93c0-1.61,0.01-3.21,0-4.82c-0.01-1.08,0.5-1.83,1.4-2.4c1.56-0.97,3.09-1.98,4.63-2.97
	c0.31-0.2,0.97,0.18,0.99,0.62c0.03,0.47,0.03,0.95,0,1.42c-0.03,0.46-0.66,0.77-1.03,0.48c-0.42-0.33-0.69-0.27-1.11,0.03
	c-0.93,0.65-1.91,1.21-2.88,1.82c-0.39,0.24-0.61,0.85-0.48,1.27c0.09,0.3,0.52,0.48,0.88,0.4c0.57-0.13,1.15-0.4,1.65-0.72
	c1.43-0.89,2.81-1.84,4.22-2.75c0.53-0.34,1.06-0.68,1.61-1c0.4-0.23,0.74-0.16,1,0.19c0.2,0.27,0.16,0.82-0.14,1.04
	c-0.66,0.48-1.34,0.92-2.01,1.38c-0.8,0.56-1.63,1.1-2.38,1.73c-0.69,0.58-0.88,1.44-0.89,2.3c-0.03,2.58-0.01,5.16-0.02,7.74
	c0,0.93-0.33,1.35-1.25,1.43c-1.08,0.09-2.16,0.08-3.15-0.49c-0.65-0.38-1.08-0.87-1.08-1.68C88.65,87.28,88.64,85.6,88.64,83.93z"
	/>
<path class="st0" d="M104.47,82.46c0,0.52,0,0.9-0.01,1.28c0,0.13-0.12,0.28-0.22,0.37c-0.45,0.36-0.91,0.7-1.37,1.04
	c-0.7,0.52-1.41,1.05-2.23,1.65c-0.07-0.69-0.26-1.24,0.29-1.67c0.62-0.49,1.28-0.92,1.9-1.4c0.38-0.29,0.77-0.58,1.14-0.89
	C104.11,82.73,104.25,82.61,104.47,82.46z"/>
</svg>
