<svg xmlns="http://www.w3.org/2000/svg" xmlns:xlink="http://www.w3.org/1999/xlink" width="120" height="120"><defs><linearGradient id="c" x1="50%" x2="50%" y1="93.667%" y2="0%"><stop offset="0%" stop-color="#050D14"/><stop offset="100%" stop-color="#13243A" stop-opacity="0"/></linearGradient><linearGradient id="d" x1="31.924%" x2="37.43%" y1="50%" y2="331.86%"><stop offset="0%" stop-color="#1EF0C2" stop-opacity="0"/><stop offset="100%" stop-color="#1EF0C2"/></linearGradient><linearGradient id="f" x1="50%" x2="50%" y1="93.667%" y2="0%"><stop offset="0%" stop-color="#0F1A2D"/><stop offset="100%" stop-color="#101A2B"/></linearGradient><linearGradient id="k" x1="50%" x2="28.893%" y1="61.038%" y2="24.926%"><stop offset="0%" stop-color="#267195"/><stop offset="100%" stop-color="#00C3FF"/></linearGradient><linearGradient id="l" x1="50%" x2="50%" y1="100%" y2="50%"><stop offset="0%" stop-color="#5B79A2"/><stop offset="100%" stop-color="#2E4469"/><stop offset="100%" stop-color="#2E4469"/><stop offset="100%" stop-color="#2E4469"/></linearGradient><linearGradient id="m" x1="50%" x2="28.893%" y1="51.397%" y2="46.826%"><stop offset="0%" stop-color="#267195"/><stop offset="100%" stop-color="#00C3FF"/></linearGradient><linearGradient id="p" x1="46.328%" x2="55.075%" y1="2.256%" y2="100%"><stop offset="0%" stop-color="#374F73"/><stop offset="100%" stop-color="#253652"/></linearGradient><linearGradient id="q" x1="50%" x2="50%" y1="149.484%" y2="0%"><stop offset="0%" stop-color="#5B79A2"/><stop offset="100%" stop-color="#2E4469"/></linearGradient><linearGradient id="s" x1="50%" x2="50%" y1="100%" y2="69.152%"><stop offset="0%" stop-color="#5B79A2"/><stop offset="100%" stop-color="#2E4469"/></linearGradient><linearGradient id="t" x1="50%" x2="29.35%" y1="66.882%" y2="11.65%"><stop offset="0%" stop-color="#267195"/><stop offset="100%" stop-color="#00C3FF"/></linearGradient><linearGradient id="u" x1="10.01%" x2="94.296%" y1="35.071%" y2="66.62%"><stop offset="0%" stop-color="#5B79A2"/><stop offset="100%" stop-color="#2E4469"/></linearGradient><linearGradient id="v" x1="50%" x2="28.893%" y1="57.064%" y2="33.953%"><stop offset="0%" stop-color="#267195"/><stop offset="100%" stop-color="#00C3FF"/></linearGradient><linearGradient id="F" x1="50%" x2="28.893%" y1="60.519%" y2="26.105%"><stop offset="0%" stop-color="#267195"/><stop offset="100%" stop-color="#00C3FF"/></linearGradient><linearGradient id="G" x1="50%" x2="50%" y1="100%" y2="50%"><stop offset="0%" stop-color="#5B79A2"/><stop offset="100%" stop-color="#2E4469"/><stop offset="100%" stop-color="#2E4469"/><stop offset="100%" stop-color="#2E4469"/></linearGradient><linearGradient id="H" x1="50%" x2="28.893%" y1="51.331%" y2="46.975%"><stop offset="0%" stop-color="#267195"/><stop offset="100%" stop-color="#00C3FF"/></linearGradient><linearGradient id="K" x1="46.147%" x2="55.326%" y1="2.256%" y2="100%"><stop offset="0%" stop-color="#374F73"/><stop offset="100%" stop-color="#253652"/></linearGradient><linearGradient id="L" x1="50%" x2="50%" y1="149.484%" y2="0%"><stop offset="0%" stop-color="#5B79A2"/><stop offset="100%" stop-color="#2E4469"/></linearGradient><linearGradient id="N" x1="50%" x2="50%" y1="100%" y2="69.152%"><stop offset="0%" stop-color="#5B79A2"/><stop offset="100%" stop-color="#2E4469"/></linearGradient><linearGradient id="O" x1="50%" x2="28.893%" y1="66.444%" y2="12.645%"><stop offset="0%" stop-color="#267195"/><stop offset="100%" stop-color="#00C3FF"/></linearGradient><linearGradient id="P" x1="10.01%" x2="94.296%" y1="35.773%" y2="65.838%"><stop offset="0%" stop-color="#5B79A2"/><stop offset="100%" stop-color="#2E4469"/></linearGradient><linearGradient id="Q" x1="50%" x2="28.893%" y1="56.732%" y2="34.708%"><stop offset="0%" stop-color="#267195"/><stop offset="100%" stop-color="#00C3FF"/></linearGradient><linearGradient id="R" x1="63.374%" x2="26.659%" y1="54.484%" y2="29.523%"><stop offset="0%" stop-color="#266C90"/><stop offset="100%" stop-color="#00C5FF"/></linearGradient><linearGradient id="S" x1="40.357%" x2="16.862%" y1="51.992%" y2="40.056%"><stop offset="0%" stop-color="#21C8F6" stop-opacity=".299"/><stop offset="100%" stop-color="#637BFF"/></linearGradient><linearGradient id="ac" x1="50%" x2="50%" y1="79.167%" y2="30.82%"><stop offset="0%" stop-color="#267195"/><stop offset="100%" stop-color="#00C3FF"/></linearGradient><linearGradient id="ad" x1="50%" x2="50%" y1="100%" y2="50%"><stop offset="0%" stop-color="#5B79A2"/><stop offset="100%" stop-color="#2E4469"/><stop offset="100%" stop-color="#2E4469"/><stop offset="100%" stop-color="#2E4469"/></linearGradient><linearGradient id="ae" x1="52.585%" x2="50%" y1="48.002%" y2="53.908%"><stop offset="0%" stop-color="#267195"/><stop offset="100%" stop-color="#00C3FF"/></linearGradient><linearGradient id="ah" x1="46.112%" x2="55.374%" y1="2.256%" y2="100%"><stop offset="0%" stop-color="#374F73"/><stop offset="100%" stop-color="#253652"/></linearGradient><linearGradient id="ai" x1="50%" x2="50%" y1="149.484%" y2="0%"><stop offset="0%" stop-color="#5B79A2"/><stop offset="100%" stop-color="#2E4469"/></linearGradient><linearGradient id="ak" x1="50%" x2="50%" y1="100%" y2="69.152%"><stop offset="0%" stop-color="#5B79A2"/><stop offset="100%" stop-color="#2E4469"/></linearGradient><linearGradient id="al" x1="50%" x2="28.893%" y1="66.296%" y2="12.982%"><stop offset="0%" stop-color="#267195"/><stop offset="100%" stop-color="#00C3FF"/></linearGradient><linearGradient id="am" x1="10.01%" x2="94.296%" y1="35.902%" y2="65.695%"><stop offset="0%" stop-color="#5B79A2"/><stop offset="100%" stop-color="#2E4469"/></linearGradient><linearGradient id="an" x1="50%" x2="50%" y1="117.612%" y2="22.058%"><stop offset="0%" stop-color="#267195"/><stop offset="100%" stop-color="#00C3FF" stop-opacity=".734"/></linearGradient><linearGradient id="ap" x1="40.357%" x2="16.862%" y1="51.71%" y2="41.463%"><stop offset="0%" stop-color="#21C8F6" stop-opacity=".299"/><stop offset="100%" stop-color="#637BFF"/></linearGradient><linearGradient id="ay" x1="20.691%" x2="97.726%" y1="36.031%" y2="91.354%"><stop offset="0%" stop-color="#45E6FB"/><stop offset="100%" stop-color="#21C8F6" stop-opacity="0"/></linearGradient><linearGradient id="aC" x1="3.112%" x2="71.36%" y1="100%" y2="29.041%"><stop offset="0%" stop-color="#2FCFF9"/><stop offset="100%" stop-color="#37D3FB" stop-opacity="0"/></linearGradient><linearGradient id="aE" x1="-.6%" x2="83.7%" y1="30.153%" y2="156.528%"><stop offset="0%" stop-color="#76E1FF"/><stop offset="100%" stop-color="#76E1FF" stop-opacity="0"/></linearGradient><linearGradient id="aF" x1="-.6%" x2="83.7%" y1="30.153%" y2="156.528%"><stop offset="0%" stop-color="#76E1FF"/><stop offset="100%" stop-color="#76E1FF" stop-opacity="0"/></linearGradient><linearGradient id="aG" x1="-.6%" x2="83.7%" y1="30.153%" y2="156.528%"><stop offset="0%" stop-color="#76E1FF"/><stop offset="100%" stop-color="#76E1FF" stop-opacity="0"/></linearGradient><linearGradient id="aH" x1="-.6%" x2="83.7%" y1="30.153%" y2="156.528%"><stop offset="0%" stop-color="#76E1FF"/><stop offset="100%" stop-color="#76E1FF" stop-opacity="0"/></linearGradient><linearGradient id="aI" x1="50%" x2="50%" y1="0%" y2="97.5%"><stop offset="0%" stop-color="#21C8F6"/><stop offset="100%" stop-color="#637BFF"/></linearGradient><linearGradient id="aJ" x1="10.01%" x2="94.296%" y1="36.299%" y2="65.252%"><stop offset="0%" stop-color="#5B79A2"/><stop offset="100%" stop-color="#2E4469"/></linearGradient><linearGradient id="aK" x1="50%" x2="50%" y1="66.882%" y2="0%"><stop offset="0%" stop-color="#267195"/><stop offset="100%" stop-color="#00C3FF"/></linearGradient><linearGradient id="aL" x1="63.374%" x2="26.659%" y1="54.318%" y2="30.28%"><stop offset="0%" stop-color="#266C90"/><stop offset="100%" stop-color="#00C5FF"/></linearGradient><linearGradient id="aM" x1="40.357%" x2="16.862%" y1="52.092%" y2="39.554%"><stop offset="0%" stop-color="#21C8F6" stop-opacity=".299"/><stop offset="100%" stop-color="#637BFF"/></linearGradient><linearGradient id="aN" x1="54.107%" x2="45.222%" y1="50%" y2="73.531%"><stop offset="0%" stop-color="#5B79A2"/><stop offset="100%" stop-color="#121B2B"/></linearGradient><linearGradient id="aO" x1="46.848%" x2="55.068%" y1="56.608%" y2="8.206%"><stop offset="0%" stop-color="#267195"/><stop offset="100%" stop-color="#00C3FF"/></linearGradient><linearGradient id="aP" x1="63.649%" x2="-28.768%" y1="65.124%" y2="-35.784%"><stop offset="0%" stop-color="#5B79A2"/><stop offset="100%" stop-color="#080E16"/></linearGradient><linearGradient id="aR" x1="0%" x2="59.702%" y1="-38.261%" y2="61.475%"><stop offset="0%" stop-color="#347AA3"/><stop offset="100%" stop-color="#00C3FF"/></linearGradient><linearGradient id="aT" x1="68.921%" x2="8.333%" y1="50%" y2="70.677%"><stop offset="0%" stop-color="#5B79A2"/><stop offset="100%" stop-color="#121B2B"/></linearGradient><linearGradient id="aU" x1="27.798%" x2="74.315%" y1="59.467%" y2="0%"><stop offset="0%" stop-color="#267195"/><stop offset="100%" stop-color="#00C3FF"/></linearGradient><linearGradient id="aW" x1="-18.592%" x2="100%" y1="70.746%" y2="32.401%"><stop offset="0%" stop-color="#162031"/><stop offset="100%" stop-color="#5B79A2"/></linearGradient><linearGradient id="aX" x1="50%" x2="28.893%" y1="66.831%" y2="11.766%"><stop offset="0%" stop-color="#267195"/><stop offset="100%" stop-color="#00C3FF"/></linearGradient><linearGradient id="bd" x1="25.613%" x2="50%" y1="6.73%" y2="100%"><stop offset="0%" stop-color="#22C8F6"/><stop offset="100%" stop-color="#637BFF"/></linearGradient><filter id="h" width="122.3%" height="388.3%" x="-11.1%" y="-144.1%" filterUnits="objectBoundingBox"><feGaussianBlur in="SourceGraphic" stdDeviation=".706"/></filter><filter id="i" width="138.4%" height="388.3%" x="-19.2%" y="-144.1%" filterUnits="objectBoundingBox"><feGaussianBlur in="SourceGraphic" stdDeviation=".706"/></filter><filter id="o" width="100%" height="100%" x="0%" y="0%" filterUnits="objectBoundingBox"><feGaussianBlur in="SourceGraphic"/></filter><filter id="r" width="100%" height="100%" x="0%" y="0%" filterUnits="objectBoundingBox"><feGaussianBlur in="SourceGraphic"/></filter><filter id="w" width="417.6%" height="2039.8%" x="-158.8%" y="-969.9%" filterUnits="objectBoundingBox"><feOffset in="SourceAlpha" result="shadowOffsetOuter1"/><feGaussianBlur in="shadowOffsetOuter1" result="shadowBlurOuter1" stdDeviation="1.5"/><feColorMatrix in="shadowBlurOuter1" values="0 0 0 0 0.180392157 0 0 0 0 0.811764706 0 0 0 0 0.976470588 0 0 0 1 0"/></filter><filter id="z" width="231.7%" height="2039.8%" x="-65.9%" y="-969.9%" filterUnits="objectBoundingBox"><feOffset in="SourceAlpha" result="shadowOffsetOuter1"/><feGaussianBlur in="shadowOffsetOuter1" result="shadowBlurOuter1" stdDeviation="1.5"/><feColorMatrix in="shadowBlurOuter1" values="0 0 0 0 0.180392157 0 0 0 0 0.811764706 0 0 0 0 0.976470588 0 0 0 1 0"/></filter><filter id="C" width="122.3%" height="395.3%" x="-11.1%" y="-147.7%" filterUnits="objectBoundingBox"><feGaussianBlur in="SourceGraphic" stdDeviation="1.411"/></filter><filter id="D" width="138.4%" height="395.3%" x="-19.2%" y="-147.7%" filterUnits="objectBoundingBox"><feGaussianBlur in="SourceGraphic" stdDeviation="1.411"/></filter><filter id="J" width="100%" height="100%" x="0%" y="0%" filterUnits="objectBoundingBox"><feGaussianBlur in="SourceGraphic"/></filter><filter id="M" width="100%" height="100%" x="0%" y="0%" filterUnits="objectBoundingBox"><feGaussianBlur in="SourceGraphic"/></filter><filter id="T" width="364.7%" height="1755.9%" x="-132.4%" y="-828%" filterUnits="objectBoundingBox"><feOffset in="SourceAlpha" result="shadowOffsetOuter1"/><feGaussianBlur in="shadowOffsetOuter1" result="shadowBlurOuter1" stdDeviation="2.5"/><feColorMatrix in="shadowBlurOuter1" values="0 0 0 0 0.180392157 0 0 0 0 0.811764706 0 0 0 0 0.976470588 0 0 0 1 0"/></filter><filter id="W" width="209.8%" height="1755.9%" x="-54.9%" y="-828%" filterUnits="objectBoundingBox"><feOffset in="SourceAlpha" result="shadowOffsetOuter1"/><feGaussianBlur in="shadowOffsetOuter1" result="shadowBlurOuter1" stdDeviation="2.5"/><feColorMatrix in="shadowBlurOuter1" values="0 0 0 0 0.180392157 0 0 0 0 0.811764706 0 0 0 0 0.976470588 0 0 0 1 0"/></filter><filter id="Z" width="127.5%" height="251.2%" x="-13.7%" y="-75.6%" filterUnits="objectBoundingBox"><feGaussianBlur in="SourceGraphic" stdDeviation="2.016"/></filter><filter id="aa" width="138.6%" height="398.2%" x="-19.3%" y="-149.1%" filterUnits="objectBoundingBox"><feGaussianBlur in="SourceGraphic" stdDeviation="2.016"/></filter><filter id="ag" width="100%" height="100%" x="0%" y="0%" filterUnits="objectBoundingBox"><feGaussianBlur in="SourceGraphic"/></filter><filter id="aj" width="100%" height="100%" x="0%" y="0%" filterUnits="objectBoundingBox"><feGaussianBlur in="SourceGraphic"/></filter><filter id="ar" width="261.5%" height="1738.8%" x="-80.8%" y="-819.4%" filterUnits="objectBoundingBox"><feOffset in="SourceAlpha" result="shadowOffsetOuter1"/><feGaussianBlur in="shadowOffsetOuter1" result="shadowBlurOuter1" stdDeviation="3.5"/><feColorMatrix in="shadowBlurOuter1" values="0 0 0 0 0.180392157 0 0 0 0 0.811764706 0 0 0 0 0.976470588 0 0 0 1 0"/></filter><filter id="au" width="520%" height="1738.8%" x="-210%" y="-819.4%" filterUnits="objectBoundingBox"><feOffset in="SourceAlpha" result="shadowOffsetOuter1"/><feGaussianBlur in="shadowOffsetOuter1" result="shadowBlurOuter1" stdDeviation="3.5"/><feColorMatrix in="shadowBlurOuter1" values="0 0 0 0 0.180392157 0 0 0 0 0.811764706 0 0 0 0 0.976470588 0 0 0 1 0"/></filter><filter id="az" width="300%" height="300%" x="-100%" y="-100%" filterUnits="objectBoundingBox"><feOffset in="SourceAlpha" result="shadowOffsetOuter1"/><feGaussianBlur in="shadowOffsetOuter1" result="shadowBlurOuter1" stdDeviation="2"/><feColorMatrix in="shadowBlurOuter1" values="0 0 0 0 0.180392157 0 0 0 0 0.811764706 0 0 0 0 0.976470588 0 0 0 1 0"/></filter><filter id="aD" width="170.8%" height="176.5%" x="-35.4%" y="-38.3%" filterUnits="objectBoundingBox"><feOffset in="SourceAlpha" result="shadowOffsetOuter1"/><feGaussianBlur in="shadowOffsetOuter1" result="shadowBlurOuter1" stdDeviation="1.5"/><feColorMatrix in="shadowBlurOuter1" result="shadowMatrixOuter1" values="0 0 0 0 0.180392157 0 0 0 0 0.811764706 0 0 0 0 0.976470588 0 0 0 1 0"/><feMerge><feMergeNode in="shadowMatrixOuter1"/><feMergeNode in="SourceGraphic"/></feMerge></filter><filter id="ba" width="486.1%" height="484.8%" x="-193%" y="-192.4%" filterUnits="objectBoundingBox"><feOffset in="SourceAlpha" result="shadowOffsetOuter1"/><feGaussianBlur in="shadowOffsetOuter1" result="shadowBlurOuter1" stdDeviation="2.5"/><feColorMatrix in="shadowBlurOuter1" values="0 0 0 0 0.180392157 0 0 0 0 0.811764706 0 0 0 0 0.976470588 0 0 0 1 0"/></filter><radialGradient id="b" cx="50%" cy="92.256%" r="92.256%" fx="50%" fy="92.256%"><stop offset="0%" stop-color="#2B9FFF"/><stop offset="100%" stop-color="#101A2A"/></radialGradient><radialGradient id="g" cx="50%" cy="50%" r="50%" fx="50%" fy="50%" gradientTransform="matrix(0 1 -.86294 0 .931 0)"><stop offset="0%" stop-color="#2FCFF9"/><stop offset="100%" stop-color="#37D3FB" stop-opacity="0"/></radialGradient><radialGradient id="j" cx="42.558%" cy="20.967%" r="61.183%" fx="42.558%" fy="20.967%" gradientTransform="scale(.8086 1) rotate(85.756 .476 .264)"><stop offset="0%" stop-color="#5B79A2"/><stop offset="100%" stop-color="#2E4469"/><stop offset="100%" stop-color="#2E4469"/><stop offset="100%" stop-color="#253858"/></radialGradient><radialGradient id="n" cx="52.436%" cy="42.955%" r="37.869%" fx="52.436%" fy="42.955%" gradientTransform="matrix(-.95366 0 0 -.21136 1.024 .52)"><stop offset="0%" stop-color="#172743"/><stop offset="100%" stop-opacity="0"/></radialGradient><radialGradient id="y" cx="50%" cy="50%" r="417.7%" fx="50%" fy="50%" gradientTransform="matrix(.16375 0 0 1 .418 0)"><stop offset="0%" stop-color="#21C8F6"/><stop offset="100%" stop-color="#4BDEFF"/></radialGradient><radialGradient id="B" cx="50%" cy="50%" r="1007.394%" fx="50%" fy="50%" gradientTransform="matrix(.0679 0 0 1 .466 0)"><stop offset="0%" stop-color="#21C8F6"/><stop offset="100%" stop-color="#4BDEFF"/></radialGradient><radialGradient id="E" cx="42.558%" cy="20.967%" r="61.192%" fx="42.558%" fy="20.967%" gradientTransform="matrix(.05983 .99712 -.78708 .0758 .565 -.23)"><stop offset="0%" stop-color="#5B79A2"/><stop offset="100%" stop-color="#2E4469"/><stop offset="100%" stop-color="#2E4469"/><stop offset="100%" stop-color="#253858"/></radialGradient><radialGradient id="I" cx="52.436%" cy="42.955%" r="37.011%" fx="52.436%" fy="42.955%" gradientTransform="matrix(-.97576 0 0 -.21136 1.036 .52)"><stop offset="0%" stop-color="#172743"/><stop offset="100%" stop-opacity="0"/></radialGradient><radialGradient id="V" cx="50%" cy="50%" r="427.888%" fx="50%" fy="50%" gradientTransform="matrix(.15985 0 0 1 .42 0)"><stop offset="0%" stop-color="#21C8F6"/><stop offset="100%" stop-color="#4BDEFF"/></radialGradient><radialGradient id="Y" cx="50%" cy="50%" r="1031.965%" fx="50%" fy="50%" gradientTransform="matrix(.06628 0 0 1 .467 0)"><stop offset="0%" stop-color="#21C8F6"/><stop offset="100%" stop-color="#4BDEFF"/></radialGradient><radialGradient id="ab" cx="42.558%" cy="20.967%" r="61.193%" fx="42.558%" fy="20.967%" gradientTransform="scale(.78579 1) rotate(85.634 .484 .272)"><stop offset="0%" stop-color="#5B79A2"/><stop offset="100%" stop-color="#2E4469"/><stop offset="100%" stop-color="#2E4469"/><stop offset="100%" stop-color="#253858"/></radialGradient><radialGradient id="af" cx="52.436%" cy="42.955%" r="36.852%" fx="52.436%" fy="42.955%" gradientTransform="matrix(-.97997 0 0 -.21136 1.038 .52)"><stop offset="0%" stop-color="#172743"/><stop offset="100%" stop-opacity="0"/></radialGradient><radialGradient id="at" cx="50%" cy="50%" r="693.908%" fx="50%" fy="50%" gradientTransform="matrix(.09857 0 0 1 .45 0)"><stop offset="0%" stop-color="#21C8F6"/><stop offset="100%" stop-color="#4BDEFF"/></radialGradient><radialGradient id="aw" cx="50%" cy="50%" r="266.888%" fx="50%" fy="50%" gradientTransform="matrix(.25629 0 0 1 .372 0)"><stop offset="0%" stop-color="#21C8F6"/><stop offset="100%" stop-color="#4BDEFF"/></radialGradient><radialGradient id="ax" cx="50%" cy="50%" r="46.1%" fx="50%" fy="50%"><stop offset="0%" stop-color="#257EDD"/><stop offset="100%" stop-color="#267EDC" stop-opacity="0"/></radialGradient><radialGradient id="aB" cx="50%" cy="50%" r="68.4%" fx="50%" fy="50%"><stop offset="0%" stop-color="#21C8F6"/><stop offset="100%" stop-color="#4BDEFF"/></radialGradient><radialGradient id="aV" cx="50%" cy="50%" r="50%" fx="50%" fy="50%" gradientTransform="matrix(1 0 0 .95939 0 .02)"><stop offset="0%" stop-opacity=".608"/><stop offset="38.2%" stop-opacity=".392"/><stop offset="100%" stop-opacity="0"/></radialGradient><radialGradient id="aY" cx="50%" cy="50%" r="46.1%" fx="50%" fy="50%" gradientTransform="matrix(1 0 0 .9968 0 .002)"><stop offset="0%" stop-color="#257EDD"/><stop offset="100%" stop-color="#267EDC" stop-opacity="0"/></radialGradient><radialGradient id="aZ" cx="50%" cy="50%" r="46.1%" fx="50%" fy="50%" gradientTransform="matrix(1 0 0 .9968 0 .002)"><stop offset="0%" stop-color="#257EDD"/><stop offset="100%" stop-color="#267EDC" stop-opacity="0"/></radialGradient><radialGradient id="bc" cx="50%" cy="50%" r="68.4%" fx="50%" fy="50%" gradientTransform="matrix(1 0 0 .9968 0 .002)"><stop offset="0%" stop-color="#21C8F6"/><stop offset="100%" stop-color="#4BDEFF"/></radialGradient><path id="x" d="M.25 0h2.369a.232.232 0 010 .464H.249A.232.232 0 11.25 0z"/><path id="A" d="M.232 1.7h6.37a.232.232 0 01-.001.465H.232a.233.233 0 010-.465z"/><path id="U" d="M.488 0h4.76a.453.453 0 010 .906H.488a.453.453 0 010-.906z"/><path id="X" d="M.453 3.32h12.76a.454.454 0 01.001.906H.453a.453.453 0 010-.906z"/><path id="ao" d="M18.463 23.524c10.197 0 18.463-.218 18.463-8.51S28.66 0 18.463 0C8.266 0 0 6.722 0 15.014c0 8.292 8.266 8.51 18.463 8.51z"/><path id="as" d="M.69 0h11.718a.64.64 0 01.001 1.281H.69A.64.64 0 11.69 0z"/><path id="av" d="M.64 4.697h3.72a.64.64 0 010 1.281H.64a.64.64 0 11-.001-1.281z"/><path id="aQ" d="M5.935 10.687l5.063-3.476h9.278l5.9 8.259-2.523 7.451H21.4l1.287-5.126-4.505-5.343h-4.8l-3.34 2.614L8.12 19.4l3.85 5.706 4.085.801v2.276l-6.885-.646L3.362 19.4l2.572-8.714z"/><path id="aS" d="M5.935 10.687l5.063-3.476h9.278l5.9 8.259-2.523 7.451H21.4l1.287-5.126-4.505-5.343h-4.8l-3.34 2.614L8.12 19.4l3.85 5.706 4.085.801v2.276l-6.885-.646L3.362 19.4l2.572-8.714z"/><circle id="a" cx="60" cy="60" r="60"/><circle id="aA" cx="3" cy="50.327" r="3"/><ellipse id="bb" cx="7.34" cy="8.108" rx="1.943" ry="1.949"/></defs><g fill="none" fill-rule="evenodd"><mask id="e" fill="#fff"><use xlink:href="#a"/></mask><use fill="url(#b)" xlink:href="#a"/><path fill="url(#c)" fill-rule="nonzero" stroke="url(#d)" stroke-width=".5" d="M71.384 10.151l36.493 96.346-26.524 18.236h-38.56l-30.305-18.248L48.53 10.482l22.853-.33z" mask="url(#e)"/><path fill="url(#f)" fill-rule="nonzero" d="M49.835 1.937L18.181 102.591l26.725 22.392h33.868l23.407-22.392L70.134 1.601z" mask="url(#e)"/><ellipse fill="url(#g)" opacity=".501" style="mix-blend-mode:hard-light" cx="60" cy="92.5" mask="url(#e)" rx="41.034" ry="17.5"/><g mask="url(#e)" opacity=".277"><g transform="translate(51 -10)"><ellipse cx="9.5" cy="18.797" fill="#000" filter="url(#h)" opacity=".759" rx="9.5" ry="1"/><g transform="translate(1.289)"><ellipse cx="8.421" cy="20.266" fill="#000" filter="url(#i)" opacity=".759" rx="5.518" ry="1"/><path fill="url(#j)" fill-rule="nonzero" d="M3.571 10.121h9.718c.979 0 1.773.794 1.773 1.774v4.725a4.234 4.234 0 01-4.234 4.233H6.023A4.233 4.233 0 011.79 16.62v-4.717c0-.984.797-1.782 1.781-1.782z"/><path fill="url(#k)" d="M3.571 10.121h9.718c.979 0 1.773.794 1.773 1.774v4.725a4.234 4.234 0 01-4.234 4.233H6.023A4.233 4.233 0 011.79 16.62v-4.717c0-.984.797-1.782 1.781-1.782z" opacity=".447"/><path fill="url(#l)" fill-rule="nonzero" d="M8.426 13.51c3.665 0 6.636-.035 6.636-1.38 0-1.347-2.971-2.438-6.636-2.438S1.79 10.783 1.79 12.13c0 1.346 2.97 1.381 6.636 1.381z"/><path fill="url(#m)" d="M8.426 13.51c3.665 0 6.636-.035 6.636-1.38 0-1.347-2.971-2.438-6.636-2.438S1.79 10.783 1.79 12.13c0 1.346 2.97 1.381 6.636 1.381z" opacity=".447"/><path fill="#16243A" fill-rule="nonzero" d="M8.426 12.63c1.89 0 3.423-.028 3.423-1.063s-1.533-1.875-3.423-1.875c-1.89 0-3.423.84-3.423 1.875 0 1.035 1.533 1.062 3.423 1.062z"/><g transform="scale(-1 1) rotate(-4 183.31 50.787)"><circle cx="1.092" cy="1.139" r="1" fill="url(#n)" filter="url(#o)" opacity=".899" transform="rotate(-81 1.092 1.139)"/><path stroke="url(#p)" stroke-width=".5" d="M.84.564C-.596.661.282 2.072.11 3.358c-.152 1.14.662 2.331 1.509 1.96" transform="scale(-1 1) rotate(-8 3.654 19.588)"/><g transform="scale(-1 1) rotate(82 -.803 -.362)"><rect width="1" height="1" x=".255" y=".25" fill="#1B283E" rx=".5"/><rect width="1.188" height="1" fill="url(#q)" rx=".5"/></g></g><g transform="rotate(-4 191.733 -190.429)"><circle cx="1.092" cy="1.139" r="1" fill="url(#n)" filter="url(#r)" opacity=".899" transform="rotate(-81 1.092 1.139)"/><path stroke="url(#p)" stroke-width=".5" d="M.84.564C-.596.661.282 2.072.11 3.358c-.152 1.14.662 2.331 1.509 1.96" transform="scale(-1 1) rotate(-8 3.654 19.588)"/><g transform="scale(-1 1) rotate(82 -.803 -.362)"><rect width="1" height="1" x=".255" y=".25" fill="#1B283E" rx=".5"/><rect width="1.188" height="1" fill="url(#q)" rx=".5"/></g></g><path fill="url(#s)" d="M7.262 7.343H9.69c.63 0 1.14.51 1.14 1.14v2.97c0 .36-.291.653-.651.653H6.773a.652.652 0 01-.652-.652v-2.97c0-.63.51-1.141 1.14-1.141z"/><path fill="url(#t)" d="M7.262 7.343H9.69c.63 0 1.14.51 1.14 1.14v2.97c0 .36-.291.653-.651.653H6.773a.652.652 0 01-.652-.652v-2.97c0-.63.51-1.141 1.14-1.141z" opacity=".447"/><path fill="url(#u)" fill-rule="nonzero" d="M8.173 10.573c4.514 0 8.173-.098 8.173-3.825C16.346 3.021 12.686 0 8.173 0 3.659 0 0 3.021 0 6.748c0 3.727 3.66 3.825 8.173 3.825z" transform="translate(.253)"/><path fill="url(#v)" d="M8.173 10.573c4.514 0 8.173-.098 8.173-3.825C16.346 3.021 12.686 0 8.173 0 3.659 0 0 3.021 0 6.748c0 3.727 3.66 3.825 8.173 3.825z" opacity=".447" transform="translate(.253)"/><g fill-rule="nonzero"><path fill="#16243A" d="M4.275 15.713h8.219a.232.232 0 010 .464h-8.22a.232.232 0 11.001-.464z"/><g transform="translate(4.025 15.713)"><use fill="#000" filter="url(#w)" xlink:href="#x"/><use fill="url(#y)" xlink:href="#x"/></g><path fill="#16243A" d="M4.26 16.563h8.22a.231.231 0 110 .463H4.26a.231.231 0 110-.463zM4.257 17.413h8.22c.128 0 .231.104.231.233a.232.232 0 01-.232.232H4.257a.233.233 0 010-.465z"/><g transform="translate(4.025 15.713)"><use fill="#000" filter="url(#z)" xlink:href="#A"/><use fill="url(#B)" xlink:href="#A"/></g><path fill="#16243A" d="M4.257 18.278h8.22a.232.232 0 01-.001.464H4.257a.232.232 0 010-.464z"/></g></g></g></g><g mask="url(#e)" opacity=".547"><g transform="translate(41 11)"><ellipse cx="19" cy="36.699" fill="#000" filter="url(#C)" opacity=".759" rx="19" ry="1.434"/><g transform="translate(2.59)"><ellipse cx="16.829" cy="39.566" fill="#000" filter="url(#D)" opacity=".759" rx="11.037" ry="1.434"/><path fill="url(#E)" fill-rule="nonzero" d="M7.045 19.76h19.603a3.463 3.463 0 013.463 3.464v9.022a8.467 8.467 0 01-8.467 8.467h-9.61a8.467 8.467 0 01-8.467-8.467V23.24a3.478 3.478 0 013.478-3.478z"/><path fill="url(#F)" d="M7.045 19.76h19.603a3.463 3.463 0 013.463 3.464v9.022a8.467 8.467 0 01-8.467 8.467h-9.61a8.467 8.467 0 01-8.467-8.467V23.24a3.478 3.478 0 013.478-3.478z" opacity=".447"/><path fill="url(#G)" fill-rule="nonzero" d="M16.84 26.378c7.33 0 13.271-.07 13.271-2.697 0-2.628-5.942-4.758-13.272-4.758s-13.272 2.13-13.272 4.758c0 2.627 5.942 2.697 13.272 2.697z"/><path fill="url(#H)" d="M16.84 26.378c7.33 0 13.271-.07 13.271-2.697 0-2.628-5.942-4.758-13.272-4.758s-13.272 2.13-13.272 4.758c0 2.627 5.942 2.697 13.272 2.697z" opacity=".447"/><path fill="#16243A" fill-rule="nonzero" d="M16.84 24.657c3.78 0 6.845-.053 6.845-2.074s-3.065-3.66-6.846-3.66c-3.78 0-6.845 1.639-6.845 3.66s3.065 2.074 6.845 2.074z"/><g transform="scale(-1 1) rotate(-4 357.87 100.924)"><ellipse cx="2.182" cy="2.225" fill="url(#I)" filter="url(#J)" opacity=".899" rx="1.95" ry="1.902" transform="rotate(-81 2.182 2.225)"/><path stroke="url(#K)" stroke-width=".864" d="M1.679 1.107C-1.19 1.297.565 4.051.22 6.562c-.304 2.225 1.322 4.55 3.017 3.825" transform="scale(-1 1) rotate(-8 7.09 39.027)"/><g transform="scale(-1 1) rotate(82 -1.58 -.756)"><rect width="1.358" height="1.463" x=".509" y=".488" fill="#1B283E" rx=".679"/><rect width="2.376" height="1" fill="url(#L)" rx=".5"/></g></g><g transform="rotate(-4 374.704 -381.149)"><ellipse cx="2.182" cy="2.225" fill="url(#I)" filter="url(#M)" opacity=".899" rx="1.95" ry="1.902" transform="rotate(-81 2.182 2.225)"/><path stroke="url(#K)" stroke-width=".864" d="M1.679 1.107C-1.19 1.297.565 4.051.22 6.562c-.304 2.225 1.322 4.55 3.017 3.825" transform="scale(-1 1) rotate(-8 7.09 39.027)"/><g transform="scale(-1 1) rotate(82 -1.58 -.756)"><rect width="1.358" height="1.463" x=".509" y=".488" fill="#1B283E" rx=".679"/><rect width="2.376" height="1" fill="url(#L)" rx=".5"/></g></g><path fill="url(#N)" d="M14.51 14.336h4.86a2.28 2.28 0 012.281 2.281v5.714c0 .72-.583 1.304-1.304 1.304h-6.814c-.72 0-1.304-.584-1.304-1.304v-5.714a2.282 2.282 0 012.282-2.281z"/><path fill="url(#O)" d="M14.51 14.336h4.86a2.28 2.28 0 012.281 2.281v5.714c0 .72-.583 1.304-1.304 1.304h-6.814c-.72 0-1.304-.584-1.304-1.304v-5.714a2.282 2.282 0 012.282-2.281z" opacity=".447"/><path fill="url(#P)" fill-rule="nonzero" d="M16.346 20.643c9.027 0 16.345-.192 16.345-7.468S25.373 0 16.346 0C7.318 0 0 5.899 0 13.175c0 7.276 7.318 7.468 16.346 7.468z" transform="translate(.494)"/><path fill="url(#Q)" d="M16.346 20.643c9.027 0 16.345-.192 16.345-7.468S25.373 0 16.346 0C7.318 0 0 5.899 0 13.175c0 7.276 7.318 7.468 16.346 7.468z" opacity=".447" transform="translate(.494)"/><path fill="#121E32" fill-rule="nonzero" stroke="url(#R)" stroke-width=".504" d="M16.346 2.259c3.524 0 6.717 1.164 9.027 3.052 2.29 1.87 3.713 4.453 3.713 7.31 0 1.17-.239 2.105-.686 2.849-.479.795-1.195 1.368-2.096 1.785-2.357 1.092-5.945 1.13-9.958 1.13-4.083-.004-7.638-.068-9.968-1.147-.9-.417-1.614-.988-2.09-1.778-.446-.742-.683-1.674-.683-2.84 0-2.856 1.423-5.439 3.713-7.31 2.31-1.887 5.503-3.051 9.028-3.051z" transform="translate(.494)"/><path fill="url(#S)" fill-rule="nonzero" d="M16.346 2.007c4.001 0 7.58 1.478 9.964 3.802a15.51 15.51 0 00-4.964-.802c-7.176 0-12.993 4.752-12.993 10.613 0 1.047.185 1.911.53 2.625-3.344-.583-5.53-2.032-5.53-5.625 0-5.861 5.817-10.613 12.993-10.613z" opacity=".298" transform="translate(.494)"/><g fill-rule="nonzero"><path fill="#16243A" d="M8.526 30.678h16.46a.454.454 0 01.001.906H8.525a.452.452 0 01.001-.906z"/><g transform="translate(8.038 30.678)"><use fill="#000" filter="url(#T)" xlink:href="#U"/><use fill="url(#V)" xlink:href="#U"/></g><path fill="#16243A" d="M8.498 32.336h16.46a.453.453 0 010 .906H8.498a.453.453 0 010-.906zM8.491 33.998h16.461a.453.453 0 010 .906H8.49a.452.452 0 11.001-.906z"/><g transform="translate(8.038 30.678)"><use fill="#000" filter="url(#W)" xlink:href="#X"/><use fill="url(#Y)" xlink:href="#X"/></g><path fill="#16243A" d="M8.491 35.685h16.461a.453.453 0 010 .906H8.49a.453.453 0 01.001-.906z"/></g></g></g></g><g mask="url(#e)"><g transform="translate(36.694 43)"><ellipse cx="23.306" cy="53.888" fill="#000" filter="url(#Z)" opacity=".457" rx="22" ry="4"/><ellipse cx="23.902" cy="55.972" fill="#000" filter="url(#aa)" opacity=".759" rx="15.684" ry="2.028"/><path fill="url(#ab)" fill-rule="nonzero" d="M9.976 27.954h27.901a4.9 4.9 0 014.9 4.9v12.644c0 6.68-5.416 12.096-12.097 12.096H17.151c-6.68 0-12.096-5.415-12.096-12.096V32.875a4.92 4.92 0 014.92-4.92z"/><path fill="url(#ac)" d="M9.976 27.954h27.901a4.9 4.9 0 014.9 4.9v12.644c0 6.68-5.416 12.096-12.097 12.096H17.151c-6.68 0-12.096-5.415-12.096-12.096V32.875a4.92 4.92 0 014.92-4.92z" opacity=".447"/><path fill="url(#ad)" fill-rule="nonzero" d="M23.916 37.315c10.416 0 18.86-.098 18.86-3.815s-8.444-6.73-18.86-6.73c-10.416 0-18.86 3.013-18.86 6.73 0 3.717 8.444 3.815 18.86 3.815z"/><path fill="url(#ae)" d="M23.916 37.315c10.416 0 18.86-.098 18.86-3.815s-8.444-6.73-18.86-6.73c-10.416 0-18.86 3.013-18.86 6.73 0 3.717 8.444 3.815 18.86 3.815z" opacity=".447"/><path fill="#16243A" fill-rule="nonzero" d="M23.916 34.881c5.372 0 9.728-.075 9.728-2.935 0-2.859-4.356-5.177-9.728-5.177-5.373 0-9.728 2.318-9.728 5.177 0 2.86 4.355 2.935 9.728 2.935z"/><g transform="scale(-1 1) rotate(-4 506.158 143.01)"><ellipse cx="3.094" cy="3.154" fill="url(#af)" filter="url(#ag)" opacity=".899" rx="2.758" ry="2.703" transform="rotate(-81 3.094 3.154)"/><path stroke="url(#ah)" stroke-width="1.235" d="M2.385 1.59C-1.69 1.86.803 5.756.315 9.308c-.434 3.147 1.878 6.438 4.286 5.412" transform="scale(-1 1) rotate(-8 9.904 55.387)"/><g transform="scale(-1 1) rotate(82 -2.24 -1.075)"><rect width="1.93" height="2.07" x=".724" y=".69" fill="#1B283E" rx=".965"/><rect width="3.377" height="1.38" fill="url(#ai)" rx=".69"/></g></g><g transform="rotate(-4 530.17 -541.555)"><ellipse cx="3.101" cy="3.147" fill="url(#af)" filter="url(#aj)" opacity=".899" rx="2.758" ry="2.703" transform="rotate(-81 3.101 3.147)"/><path stroke="url(#ah)" stroke-width="1.235" d="M2.385 1.567C-1.69 1.835.803 5.73.315 9.282-.12 12.43 2.192 15.721 4.6 14.694" transform="scale(-1 1) rotate(-8 10.026 55.421)"/><g transform="scale(-1 1) rotate(82 -2.24 -1.083)"><rect width="1.93" height="2.07" x=".724" y=".69" fill="#1B283E" rx=".965"/><rect width="3.377" height="1.38" fill="url(#ai)" rx=".69"/></g></g><path fill="url(#ak)" d="M20.624 20.28h6.87c1.8 0 3.26 1.46 3.26 3.26v8.032a1.863 1.863 0 01-1.863 1.863h-9.664a1.863 1.863 0 01-1.863-1.863V23.54c0-1.8 1.46-3.26 3.26-3.26z"/><path fill="url(#al)" d="M20.624 20.28h6.87c1.8 0 3.26 1.46 3.26 3.26v8.032a1.863 1.863 0 01-1.863 1.863h-9.664a1.863 1.863 0 01-1.863-1.863V23.54c0-1.8 1.46-3.26 3.26-3.26z" opacity=".447"/><path fill="url(#am)" fill-rule="nonzero" d="M23.228 29.203c12.828 0 23.228-.272 23.228-10.565C46.456 8.344 36.056 0 23.228 0 10.4 0 0 8.344 0 18.638 0 28.93 10.4 29.203 23.228 29.203z" transform="translate(.688)"/><path fill="url(#an)" d="M23.228 29.203c12.828 0 23.228-.272 23.228-10.565C46.456 8.344 36.056 0 23.228 0 10.4 0 0 8.344 0 18.638 0 28.93 10.4 29.203 23.228 29.203z" opacity=".447" transform="translate(.688)"/><g transform="translate(5.453 2.84)"><mask id="aq" fill="#fff"><use xlink:href="#ao"/></mask><use fill="#192841" fill-rule="nonzero" xlink:href="#ao"/><path fill="url(#ap)" fill-rule="nonzero" d="M18.463 0c7.12 0 13.299 3.277 16.38 8.078C32.093 6.758 28.887 6 25.463 6 15.266 6 7 12.722 7 21.014c0 .656.052 1.262.152 1.821C2.8 21.931 0 19.84 0 15.014 0 6.722 8.266 0 18.463 0z" mask="url(#aq)" opacity=".298"/></g><g fill-rule="nonzero"><path fill="#16243A" d="M12.098 43.399h23.398a.64.64 0 110 1.281H12.098a.64.64 0 110-1.281z"/><g transform="translate(11.408 43.399)"><use fill="#000" filter="url(#ar)" xlink:href="#as"/><use fill="url(#at)" xlink:href="#as"/></g><path fill="#16243A" d="M12.058 45.745h23.398a.64.64 0 110 1.281H12.058a.64.64 0 110-1.281zM12.048 48.096h23.4a.64.64 0 010 1.281h-23.4a.64.64 0 11-.001-1.281z"/><g transform="translate(11.408 43.399)"><use fill="#000" filter="url(#au)" xlink:href="#av"/><use fill="url(#aw)" xlink:href="#av"/></g><path fill="#16243A" d="M12.048 50.482h23.4a.64.64 0 010 1.281h-23.4a.64.64 0 11-.001-1.28z"/></g></g></g><g mask="url(#e)"><g transform="translate(50 6.673)"><circle cx="11.5" cy="49.827" r="11.5" fill="url(#ax)" fill-rule="nonzero" opacity=".842"/><path stroke="url(#ay)" stroke-width="2" d="M69.618 85.536L56.309 47.363 36.304 17.71l-24.34 31.763"/><g fill-rule="nonzero" transform="translate(8)"><use fill="#000" filter="url(#az)" xlink:href="#aA"/><use fill="url(#aB)" xlink:href="#aA"/></g><path fill="url(#aC)" opacity=".501" style="mix-blend-mode:hard-light" d="M0 48.561L16.338 0l30.687 20.643z" transform="translate(11.155)"/><g fill-rule="nonzero" filter="url(#aD)" transform="translate(13 30.327)"><path fill="#76E2FF" d="M5.95.839H.426A.424.424 0 010 .419.424.424 0 01.425 0h5.526a.42.42 0 01.299.718.42.42 0 01-.3.12z"/><path fill="url(#aE)" d="M11.901.839h-4.25a.43.43 0 01-.3-.121.418.418 0 01.001-.597A.422.422 0 017.65 0h4.25a.421.421 0 01.425.419.42.42 0 01-.425.419z"/><path fill="#76E2FF" d="M14.451.839h-.85a.424.424 0 01-.425-.42.42.42 0 01.426-.419h.85a.424.424 0 01.424.419.42.42 0 01-.425.419zm3.475 2.019H11.55a.429.429 0 01-.299-.121.426.426 0 01-.126-.299.421.421 0 01.426-.419h6.375a.42.42 0 01.299.718.418.418 0 01-.299.12zM9.601 6.895h-5.95a.424.424 0 01-.3-.12.42.42 0 01.3-.718H9.6a.42.42 0 01.425.419.419.419 0 01-.425.419zM.85 2.858H.425a.425.425 0 01-.299-.121A.426.426 0 010 2.438a.422.422 0 01.425-.419H.85a.424.424 0 01.3.12.42.42 0 01-.301.718z"/><path fill="url(#aF)" d="M4.25 4.876H.425a.416.416 0 01-.299-.12A.428.428 0 010 4.457a.422.422 0 01.425-.419H4.25a.42.42 0 01.425.419c0 .112-.046.22-.126.298a.415.415 0 01-.299.121z"/><path fill="#76E2FF" d="M6.8 4.876h-.85a.415.415 0 01-.298-.12.429.429 0 01-.127-.299.423.423 0 01.425-.419h.85a.42.42 0 01.426.419.426.426 0 01-.126.298.417.417 0 01-.3.121z"/><path fill="url(#aG)" d="M14.451 4.876h-5.95a.42.42 0 01-.425-.419c0-.112.046-.22.126-.298a.415.415 0 01.299-.121h5.95a.42.42 0 01.425.419c0 .112-.046.22-.126.298a.415.415 0 01-.299.121z"/><path fill="#76E2FF" d="M8.95 2.895H3.426a.42.42 0 01-.299-.718.418.418 0 01.299-.12h5.526a.42.42 0 11-.001.838zm6.602 4h-4.25a.424.424 0 01-.3-.12.428.428 0 01-.126-.3.42.42 0 01.426-.418h4.25a.42.42 0 11-.001.838zm-1.95 2.019H10.2a.424.424 0 01-.425-.419.418.418 0 01.425-.419h3.4a.42.42 0 01.425.419c0 .112-.046.22-.126.298a.418.418 0 01-.298.121z"/><path fill="url(#aG)" d="M8.501 8.914h-5.95a.421.421 0 01-.3-.718.42.42 0 01.3-.12H8.5a.416.416 0 01.299.12c.08.079.125.186.126.299a.422.422 0 01-.425.419z"/><path fill="#76E2FF" d="M.85 8.914H.425A.424.424 0 010 8.495a.418.418 0 01.425-.419H.85a.416.416 0 01.425.419.42.42 0 01-.426.419zm0-2H.425A.424.424 0 010 6.495a.418.418 0 01.425-.419H.85a.416.416 0 01.425.419.42.42 0 01-.426.419zm3.4 4.019H.425a.424.424 0 01-.425-.42.422.422 0 01.425-.419H4.25a.421.421 0 01.425.419.42.42 0 01-.425.419zm2.55 0h-.85a.425.425 0 01-.425-.42.423.423 0 01.425-.419h.85a.421.421 0 01.3.718.42.42 0 01-.3.12zm11-2h-.85a.425.425 0 01-.425-.42.423.423 0 01.425-.419h.85a.421.421 0 01.3.718.42.42 0 01-.3.12zm-2.924 2H8.501a.43.43 0 01-.3-.121.418.418 0 01.001-.597.419.419 0 01.299-.121h6.375a.421.421 0 01.425.419.42.42 0 01-.425.419zM5.95 12.952H.426a.425.425 0 01-.299-.121.426.426 0 01-.126-.299.422.422 0 01.425-.419h5.526a.424.424 0 01.299.12c.08.08.125.187.126.3a.42.42 0 01-.426.418zm5.951 0h-4.25a.43.43 0 01-.3-.121.418.418 0 01.001-.597.419.419 0 01.299-.121h4.25a.424.424 0 01.3.12.42.42 0 01-.3.718zm4.676 0h-2.974a.424.424 0 01-.427-.42.42.42 0 01.426-.419h2.973a.42.42 0 11.001.838zm.324 2.018h-1.7a.416.416 0 01-.299-.12.428.428 0 01-.126-.299.422.422 0 01.425-.419h1.7a.424.424 0 01.3.12.418.418 0 01-.001.597.415.415 0 01-.299.121z"/><path fill="url(#aG)" d="M8.501 14.97h-5.95a.42.42 0 01-.426-.419.421.421 0 01.426-.419H8.5a.42.42 0 01.425.419.422.422 0 01-.425.419z"/><path fill="#76E2FF" d="M.85 14.97H.425a.416.416 0 01-.299-.12.428.428 0 01-.126-.299.422.422 0 01.425-.419H.85a.42.42 0 01.425.419c0 .112-.046.22-.126.298a.411.411 0 01-.3.121z"/><path fill="url(#aF)" d="M4.25 16.99H.425A.422.422 0 010 16.57a.422.422 0 01.425-.42H4.25a.42.42 0 01.425.42.419.419 0 01-.425.419z"/><path fill="#76E2FF" d="M6.8 16.99h-.85a.421.421 0 01-.298-.718.415.415 0 01.298-.122h.85a.426.426 0 01.426.42.421.421 0 01-.426.419zm4 0h-.85a.421.421 0 01-.298-.718.415.415 0 01.298-.122h.85a.426.426 0 01.426.42.421.421 0 01-.426.419zm5.676 0h-2.974a.43.43 0 01-.3-.121.417.417 0 010-.597.415.415 0 01.299-.122h2.974a.421.421 0 01.3.718.419.419 0 01-.299.121z"/><path fill="url(#aH)" d="M11.601 14.99h-.425a.426.426 0 01-.425-.42.426.426 0 01.426-.42h.424a.43.43 0 01.3.121c.08.08.125.186.126.299a.423.423 0 01-.426.419z"/></g><g fill="url(#aI)" fill-rule="nonzero"><circle cx="4.5" cy="4.5" r="4.5" transform="translate(51.832 43.121)"/><circle cx="3.5" cy="3.5" r="3.5" transform="translate(32.739 14.41)"/></g></g></g><g mask="url(#e)"><path fill="url(#aJ)" fill-rule="nonzero" d="M29.25 36.252c16.154 0 29.25-.337 29.25-13.115S45.404 0 29.25 0 0 10.359 0 23.137s13.096 13.115 29.25 13.115z" transform="translate(31.517 99)"/><path fill="url(#aK)" d="M29.25 36.252c16.154 0 29.25-.337 29.25-13.115S45.404 0 29.25 0 0 10.359 0 23.137s13.096 13.115 29.25 13.115z" opacity=".447" transform="translate(31.517 99)"/><path fill="#192841" fill-rule="nonzero" stroke="url(#aL)" stroke-width=".9" d="M29.25 3.974c6.31 0 12.023 2.045 16.159 5.36 4.095 3.283 6.641 7.815 6.641 12.828 0 2.054-.427 3.694-1.227 4.997-.856 1.397-2.138 2.402-3.75 3.134-4.219 1.918-10.64 1.984-17.823 1.984-7.267-.003-13.649-.101-17.834-2.003-1.612-.732-2.89-1.736-3.743-3.126-.799-1.302-1.223-2.938-1.223-4.986 0-5.013 2.546-9.545 6.641-12.828 4.136-3.315 9.85-5.36 16.159-5.36z" transform="translate(31.517 99)"/><path fill="url(#aM)" fill-rule="nonzero" d="M29.25 3.524c6.22 0 11.868 1.958 16.04 5.146a28.362 28.362 0 00-8.04-1.146C24.41 7.524 14 15.87 14 26.162c0 2.489.608 4.391 1.712 5.846C9.832 30.963 6 28.407 6 22.162 6 11.87 16.41 3.524 29.25 3.524z" opacity=".298" transform="translate(31.517 99)"/></g><g mask="url(#e)"><g transform="scale(-1 1) rotate(1 -1862.84 -3658.894)"><path fill="url(#aN)" fill-rule="nonzero" d="M30.112-3.164a2.923 2.923 0 012.927 2.919v.009l-.026 17.62a2.94 2.94 0 01-2.936 2.936 2.924 2.924 0 01-2.928-2.919v-.009l.026-17.62a2.941 2.941 0 012.937-2.936z" transform="scale(1 -1) rotate(-59 14.933 0)"/><path fill="url(#aO)" d="M30.112-3.164a2.923 2.923 0 012.927 2.919v.009l-.026 17.62a2.94 2.94 0 01-2.936 2.936 2.924 2.924 0 01-2.928-2.919v-.009l.026-17.62a2.941 2.941 0 012.937-2.936z" opacity=".447" transform="scale(1 -1) rotate(-59 14.933 0)"/><use fill="url(#aP)" fill-rule="nonzero" transform="scale(-1 1) rotate(-25 0 84.318)" xlink:href="#aQ"/><use fill="url(#aR)" opacity=".447" transform="scale(-1 1) rotate(-25 0 84.318)" xlink:href="#aS"/></g><g transform="scale(-1 1) rotate(-47 22.219 69.403)"><path fill="#0C1321" fill-rule="nonzero" d="M39.734 33.159a2.946 2.946 0 00-.573-4.12L20.737 15.061a2.924 2.924 0 00-4.095.561l-.008.01a2.946 2.946 0 00.574 4.12L35.63 33.728a2.923 2.923 0 004.096-.56l.007-.01z"/><path fill="url(#aT)" fill-rule="nonzero" d="M16.67 2.871l3.355.005a5.87 5.87 0 015.861 5.862l.025 16.325a5.871 5.871 0 01-5.861 5.88h-.018l-3.354-.006a5.87 5.87 0 01-5.862-5.861L10.791 8.75a5.872 5.872 0 015.862-5.88h.018z" transform="scale(-1 1) rotate(54 0 -19.11)"/><path fill="url(#aU)" d="M16.67 2.871l3.355.005a5.87 5.87 0 015.861 5.862l.025 16.325a5.871 5.871 0 01-5.861 5.88h-.018l-3.354-.006a5.87 5.87 0 01-5.862-5.861L10.791 8.75a5.872 5.872 0 015.862-5.88h.018z" opacity=".447" transform="scale(-1 1) rotate(54 0 -19.11)"/><ellipse cx="16.051" cy="16.165" fill="url(#aV)" fill-rule="nonzero" opacity=".345" rx="8.611" ry="8.976" transform="rotate(-55 16.05 16.165)"/><ellipse cx="12.075" cy="12.079" fill="url(#aW)" fill-rule="nonzero" rx="8.808" ry="8.795" transform="scale(-1 1) rotate(59 0 -9.263)"/><ellipse cx="12.075" cy="12.079" fill="url(#aX)" opacity=".447" rx="8.808" ry="8.795" transform="scale(-1 1) rotate(59 0 -9.263)"/><g fill-rule="nonzero" transform="translate(4.594 3.986)"><ellipse cx="7.34" cy="8.108" fill="#1B283E" rx="4.857" ry="4.872"/><ellipse cx="7.783" cy="7.808" fill="url(#aY)" opacity=".842" rx="7.783" ry="7.808"/><ellipse cx="7.783" cy="7.808" fill="url(#aZ)" opacity=".842" rx="5.189" ry="5.206"/><use fill="#000" filter="url(#ba)" xlink:href="#bb"/><use fill="url(#bc)" xlink:href="#bb"/></g></g></g><circle cx="60" cy="60" r="59" stroke="url(#bd)" stroke-width="2"/></g></svg>